<svg xmlns="http://www.w3.org/2000/svg" style="display:none">
  <defs>
    <!-- Dashboard / Stats -->
    <symbol id="icon-dashboard" viewBox="0 0 24 24"><path fill="currentColor" d="M3 13h8V3H3v10zm0 8h8v-6H3v6zm10 0h8V11h-8v10zm0-18v6h8V3h-8z"/></symbol>
    <symbol id="icon-server" viewBox="0 0 24 24"><path fill="currentColor" d="M4 1h16a1 1 0 0 1 1 1v4a1 1 0 0 1-1 1H4a1 1 0 0 1-1-1V2a1 1 0 0 1 1-1zm0 8h16a1 1 0 0 1 1 1v4a1 1 0 0 1-1 1H4a1 1 0 0 1-1-1v-4a1 1 0 0 1 1-1zm0 8h16a1 1 0 0 1 1 1v4a1 1 0 0 1-1 1H4a1 1 0 0 1-1-1v-4a1 1 0 0 1 1-1zM8 4h2v2H8V4zm0 8h2v2H8v-2zm0 8h2v2H8v-2z"/></symbol>
    <symbol id="icon-package" viewBox="0 0 24 24"><path fill="currentColor" d="M4 3h16a1 1 0 0 1 1 1v16a1 1 0 0 1-1 1H4a1 1 0 0 1-1-1V4a1 1 0 0 1 1-1zm2 4v2h12V7H6zm0 4v2h12v-2H6zm0 4v2h8v-2H6z"/></symbol>
    <symbol id="icon-users" viewBox="0 0 24 24"><path fill="currentColor" d="M16 13q-1.65 0-2.825-1.175T12 9t1.175-2.825T16 5t2.825 1.175T20 9t-1.175 2.825T16 13zm-8 0q-1.65 0-2.825-1.175T4 9t1.175-2.825T8 5t2.825 1.175T12 9t-1.175 2.825T8 13zm0 2q2.1 0 3.9.825t3.025 2.25q1.225 1.425 1.675 3.175t.45 3.125q0 .675-.475 1.15T15.5 26h-15q-.7 0-1.175-.475T-.15 24.5q0-1.5.45-3.175t1.675-3.15q1.225-1.475 3.025-2.325T8 15zm8 0q-.125 0-.45.025t-.725.075q.575.6.975 1.35t.6 1.725q.2.975.15 1.875t-.3 1.65h6.5q.7 0 1.175-.475t.475-1.15q0-1.5-.45-3.175T22.9 15.15q-1.225-1.475-3.025-2.325T16.5 12l-.225.025q-.15.025-.275.075.55.675.925 1.425T17.55 15H16z"/></symbol>
    <symbol id="icon-settings" viewBox="0 0 24 24"><path fill="currentColor" d="M19.14 12.94c.04-.3.06-.61.06-.94 0-.32-.02-.64-.07-.94l2.03-1.58a.49.49 0 0 0 .12-.61l-1.92-3.32a.488.488 0 0 0-.59-.22l-2.39.96c-.5-.38-1.03-.7-1.62-.94l-.36-2.54a.484.484 0 0 0-.48-.41h-3.84c-.24 0-.43.17-.47.41l-.36 2.54c-.59.24-1.13.57-1.62.94l-2.39-.96c-.22-.08-.47 0-.59.22L2.74 8.87c-.12.21-.08.47.12.61l2.03 1.58c-.05.3-.07.62-.07.94s.02.64.07.94l-2.03 1.58a.49.49 0 0 0-.12.61l1.92 3.32c.12.22.37.29.59.22l2.39-.96c.5.38 1.03.7 1.62.94l.36 2.54c.05.24.24.41.48.41h3.84c.24 0 .44-.17.47-.41l.36-2.54c.59-.24 1.13-.56 1.62-.94l2.39.96c.22.08.47 0 .59-.22l1.92-3.32c.12-.22.07-.47-.12-.61l-2.01-1.58zM12 15.6A3.6 3.6 0 1 1 12 8.4a3.6 3.6 0 0 1 0 7.2z"/></symbol>
    <symbol id="icon-logout" viewBox="0 0 24 24"><path fill="currentColor" d="M17 7l-1.41 1.41L18.17 11H8v2h10.17l-2.58 2.58L17 17l5-5zM4 5h8V3H4c-1.1 0-2 .9-2 2v14c0 1.1.9 2 2 2h8v-2H4V5z"/></symbol>
    <symbol id="icon-menu" viewBox="0 0 24 24"><path fill="currentColor" d="M3 18h18v-2H3v2zm0-5h18v-2H3v2zm0-7v2h18V6H3z"/></symbol>
    <symbol id="icon-add" viewBox="0 0 24 24"><path fill="currentColor" d="M19 13h-6v6h-2v-6H5v-2h6V5h2v6h6v2z"/></symbol>
    <symbol id="icon-play" viewBox="0 0 24 24"><path fill="currentColor" d="M8 5v14l11-7z"/></symbol>
    <symbol id="icon-stop" viewBox="0 0 24 24"><path fill="currentColor" d="M6 6h12v12H6z"/></symbol>
    <symbol id="icon-restart" viewBox="0 0 24 24"><path fill="currentColor" d="M17.65 6.35A7.958 7.958 0 0 0 12 4c-4.42 0-7.99 3.58-7.99 8s3.57 8 7.99 8c3.73 0 6.84-2.55 7.73-6h-2.08A5.99 5.99 0 0 1 12 18c-3.31 0-6-2.69-6-6s2.69-6 6-6c1.66 0 3.14.69 4.22 1.78L13 11h7V4l-2.35 2.35z"/></symbol>
    <symbol id="icon-console" viewBox="0 0 24 24"><path fill="currentColor" d="M20 2H4c-1.1 0-2 .9-2 2v16c0 1.1.9 2 2 2h16c1.1 0 2-.9 2-2V4c0-1.1-.9-2-2-2zm0 18H4V4h16v16zM7 15l5-5-5-5 1.41-1.41L14.83 10 8.41 16.41 7 15z"/></symbol>
    <symbol id="icon-folder" viewBox="0 0 24 24"><path fill="currentColor" d="M10 4H4c-1.1 0-2 .9-2 2v12c0 1.1.9 2 2 2h16c1.1 0 2-.9 2-2V8c0-1.1-.9-2-2-2h-8l-2-2z"/></symbol>
    <symbol id="icon-folder-open" viewBox="0 0 24 24"><path fill="currentColor" d="M20 6h-8l-2-2H4c-1.1 0-2 .9-2 2v12c0 1.1.9 2 2 2h16c1.1 0 2-.9 2-2V8c0-1.1-.9-2-2-2zm0 12H4V8h16v10z"/></symbol>
    <symbol id="icon-file" viewBox="0 0 24 24"><path fill="currentColor" d="M14 2H6c-1.1 0-2 .9-2 2v16c0 1.1.9 2 2 2h12c1.1 0 2-.9 2-2V8l-6-6zm4 18H6V4h7v5h5v11z"/></symbol>
    <symbol id="icon-upload" viewBox="0 0 24 24"><path fill="currentColor" d="M9 16h6v-6h4l-7-7-7 7h4zm-4 2h14v2H5z"/></symbol>
    <symbol id="icon-download" viewBox="0 0 24 24"><path fill="currentColor" d="M19 9h-4V3H9v6H5l7 7 7-7zM5 18v2h14v-2H5z"/></symbol>
    <symbol id="icon-trash" viewBox="0 0 24 24"><path fill="currentColor" d="M6 19c0 1.1.9 2 2 2h8c1.1 0 2-.9 2-2V7H6v12zM8 9h8v10H8V9zm7.5-5l-1-1h-5l-1 1H5v2h14V4h-3.5z"/></symbol>
    <symbol id="icon-edit" viewBox="0 0 24 24"><path fill="currentColor" d="M3 17.25V21h3.75L17.81 9.94l-3.75-3.75L3 17.25zM20.71 7.04a1 1 0 0 0 0-1.41l-2.34-2.34a1 1 0 0 0-1.41 0l-1.83 1.83 3.75 3.75 1.83-1.83z"/></symbol>
    <symbol id="icon-save" viewBox="0 0 24 24"><path fill="currentColor" d="M17 3H5a2 2 0 0 0-2 2v14a2 2 0 0 0 2 2h14c1.1 0 2-.9 2-2V7l-4-4zm-5 16c-1.66 0-3-1.34-3-3s1.34-3 3-3 3 1.34 3 3-1.34 3-3 3zm3-10H5V5h10v4z"/></symbol>
    <symbol id="icon-check" viewBox="0 0 24 24"><path fill="currentColor" d="M9 16.17L4.83 12l-1.42 1.41L9 19 21 7l-1.41-1.41z"/></symbol>
    <symbol id="icon-close" viewBox="0 0 24 24"><path fill="currentColor" d="M19 6.41L17.59 5 12 10.59 6.41 5 5 6.41 10.59 12 5 17.59 6.41 19 12 13.41 17.59 19 19 17.59 13.41 12z"/></symbol>
    <symbol id="icon-warning" viewBox="0 0 24 24"><path fill="currentColor" d="M1 21h22L12 2 1 21zm12-3h-2v-2h2v2zm0-4h-2v-4h2v4z"/></symbol>
    <symbol id="icon-info" viewBox="0 0 24 24"><path fill="currentColor" d="M12 2C6.48 2 2 6.48 2 12s4.48 10 10 10 10-4.48 10-10S17.52 2 12 2zm1 15h-2v-6h2v6zm0-8h-2V7h2v2z"/></symbol>
    <symbol id="icon-error" viewBox="0 0 24 24"><path fill="currentColor" d="M12 2C6.48 2 2 6.48 2 12s4.48 10 10 10 10-4.48 10-10S17.52 2 12 2zm1 15h-2v-2h2v2zm0-4h-2V7h2v6z"/></symbol>
    <symbol id="icon-back" viewBox="0 0 24 24"><path fill="currentColor" d="M20 11H7.83l5.59-5.59L12 4l-8 8 8 8 1.41-1.41L7.83 13H20v-2z"/></symbol>
    <symbol id="icon-forward" viewBox="0 0 24 24"><path fill="currentColor" d="M12 4l-1.41 1.41L16.17 11H4v2h12.17l-5.58 5.59L12 20l8-8z"/></symbol>
    <symbol id="icon-refresh" viewBox="0 0 24 24"><path fill="currentColor" d="M17.65 6.35C16.2 4.9 14.21 4 12 4c-4.42 0-7.99 3.58-7.99 8s3.57 8 7.99 8c3.73 0 6.84-2.55 7.73-6h-2.08A5.99 5.99 0 0 1 12 18c-3.31 0-6-2.69-6-6s2.69-6 6-6c1.66 0 3.14.69 4.22 1.78L13 11h7V4l-2.35 2.35z"/></symbol>
    <symbol id="icon-search" viewBox="0 0 24 24"><path fill="currentColor" d="M15.5 14h-.79l-.28-.27A6.471 6.471 0 0 0 16 9.5 6.5 6.5 0 1 0 9.5 16c1.61 0 3.09-.59 4.23-1.57l.27.28v.79l5 4.99L20.49 19l-4.99-5zm-6 0C7.01 14 5 11.99 5 9.5S7.01 5 9.5 5 14 7.01 14 9.5 11.99 14 9.5 14z"/></symbol>
    <symbol id="icon-eye" viewBox="0 0 24 24"><path fill="currentColor" d="M12 4.5C7 4.5 2.73 7.61 1 12c1.73 4.39 6 7.5 11 7.5s9.27-3.11 11-7.5c-1.73-4.39-6-7.5-11-7.5zM12 17c-2.76 0-5-2.24-5-5s2.24-5 5-5 5 2.24 5 5-2.24 5-5 5zm0-8c-1.66 0-3 1.34-3 3s1.34 3 3 3 3-1.34 3-3-1.34-3-3-3z"/></symbol>
    <symbol id="icon-list" viewBox="0 0 24 24"><path fill="currentColor" d="M3 13h2v-2H3v2zm0 4h2v-2H3v2zm0-8h2V7H3v2zm4 4h14v-2H7v2zm0 4h14v-2H7v2zM7 7v2h14V7H7z"/></symbol>
    <symbol id="icon-rocket" viewBox="0 0 24 24"><path fill="currentColor" d="M12 2.5s-7 4-7 11c0 3.5 2.5 6.5 5 8.5V20c0-1.1.9-2 2-2s2 .9 2 2v2c2.5-2 5-5 5-8.5 0-7-7-11-7-11zm0 14c-1.66 0-3-1.34-3-3s1.34-3 3-3 3 1.34 3 3-1.34 3-3 3z"/></symbol>
    <symbol id="icon-java" viewBox="0 0 24 24"><path fill="currentColor" d="M8.85 18.45s-.84.49.6.65c2.18.24 3.29.2 5.68-.24 0 0 .63.39 1.51.73-5.37 2.3-12.13-.13-7.79-1.14zm-.65-2.78s-.94.7.5.83c2.06.19 3.68.2 6.49-.27 0 0 .44.44 1.14.68-6.5 1.9-13.73.15-8.13-1.24z"/><path fill="currentColor" d="M12.06 11.18c1.33 1.53-.35 2.9-.35 2.9s3.37-1.74 1.82-3.91c-1.45-2.03-2.56-3.04 3.45-6.52 0 0-9.49 2.37-4.92 7.53z"/><path fill="currentColor" d="M18.13 19.23s.62.51-.68.91c-2.48.75-10.33.98-12.51.03-.78-.34.68-.81 1.14-.91.3-.07.47-.06.47-.06-.54-.38-3.49.75-1.5 1.07 5.41.88 13.72.49 13.08-1.04z"/></symbol>
    <symbol id="icon-globe" viewBox="0 0 24 24"><path fill="currentColor" d="M12 2C6.48 2 2 6.48 2 12s4.48 10 10 10 10-4.48 10-10S17.52 2 12 2zm-1 17.93c-3.95-.49-7-3.85-7-7.93 0-.62.08-1.21.21-1.79L9 15v1c0 1.1.9 2 2 2v1.93zm6.9-2.54c-.26-.81-1-1.39-1.9-1.39h-1v-3c0-.55-.45-1-1-1H8v-2h2c.55 0 1-.45 1-1V7h2c1.1 0 2-.9 2-2v-.41c2.93 1.19 5 4.06 5 7.41 0 2.08-.8 3.97-2.1 5.39z"/></symbol>
    <symbol id="icon-user" viewBox="0 0 24 24"><path fill="currentColor" d="M12 12c2.21 0 4-1.79 4-4s-1.79-4-4-4-4 1.79-4 4 1.79 4 4 4zm0 2c-2.67 0-8 1.34-8 4v2h16v-2c0-2.66-5.33-4-8-4z"/></symbol>
    <symbol id="icon-clock" viewBox="0 0 24 24"><path fill="currentColor" d="M11.99 2C6.47 2 2 6.48 2 12s4.47 10 9.99 10C17.52 22 22 17.52 22 12S17.52 2 11.99 2zM12 20c-4.42 0-8-3.58-8-8s3.58-8 8-8 8 3.58 8 8-3.58 8-8 8zm.5-13H11v6l5.25 3.15.75-1.23-4.5-2.67z"/></symbol>
    <symbol id="icon-port" viewBox="0 0 24 24"><path fill="currentColor" d="M16 6V4c0-1.1-.9-2-2-2h-4c-1.1 0-2 .9-2 2v2H2v2h2v12c0 1.1.9 2 2 2h12c1.1 0 2-.9 2-2V8h2V6h-6zm-6-2h4v2h-4V4zm0 11l-4-4h2.5V7h3v4H14l-4 4z"/></symbol>
    <symbol id="icon-ram" viewBox="0 0 24 24"><path fill="currentColor" d="M21 6H3a1 1 0 0 0-1 1v12a1 1 0 0 0 1 1h18a1 1 0 0 0 1-1V7a1 1 0 0 0-1-1zm-1 12H4V8h16v10zM8 10H6v6h2V10zm3 0H9v6h2V10zm3 0h-2v6h2V10zm3 0h-2v6h2V10z"/></symbol>
    <symbol id="icon-database" viewBox="0 0 24 24"><path fill="currentColor" d="M12 3C7.58 3 4 4.79 4 7v10c0 2.21 3.58 4 8 4s8-1.79 8-4V7c0-2.21-3.58-4-8-4zm0 2c3.87 0 6 1.5 6 2s-2.13 2-6 2-6-1.5-6-2 2.13-2 6-2zM6 17v-2.42c1.23.81 3.36 1.42 6 1.42s4.77-.61 6-1.42V17c0 .5-2.13 2-6 2s-6-1.5-6-2zm0-5v-2.42c1.23.81 3.36 1.42 6 1.42s4.77-.61 6-1.42V12c0 .5-2.13 2-6 2s-6-1.5-6-2z"/></symbol>
    <symbol id="icon-copy" viewBox="0 0 24 24"><path fill="currentColor" d="M16 1H4c-1.1 0-2 .9-2 2v14h2V3h12V1zm3 4H8c-1.1 0-2 .9-2 2v14c0 1.1.9 2 2 2h11c1.1 0 2-.9 2-2V7c0-1.1-.9-2-2-2zm0 16H8V7h11v14z"/></symbol>
    <symbol id="icon-memory" viewBox="0 0 24 24"><path fill="currentColor" d="M21 7V3h-2v2h-2V3h-2v2h-2V3h-2v4l-1 2v9h12V9l-1-2zM7 16H5v-4h2v4zm12 0h-2v-4h2v4zm-2-6H9V9h8v1z"/></symbol>
    <symbol id="icon-terminal" viewBox="0 0 24 24"><path fill="currentColor" d="M20 2H4c-1.1 0-2 .9-2 2v16c0 1.1.9 2 2 2h16c1.1 0 2-.9 2-2V4c0-1.1-.9-2-2-2zm0 18H4V4h16v16zM7 15l5-5-5-5 1.41-1.41L14.83 10 8.41 16.41 7 15zm7 4h6v-2h-6v2z"/></symbol>
    <symbol id="icon-loading" viewBox="0 0 24 24"><path fill="currentColor" d="M12 4V1L8 5l4 4V6c3.31 0 6 2.69 6 6 0 1.01-.25 1.97-.7 2.8l1.46 1.46A7.93 7.93 0 0 0 20 12c0-4.42-3.58-8-8-8zm0 14c-3.31 0-6-2.69-6-6 0-1.01.25-1.97.7-2.8L5.24 7.74A7.93 7.93 0 0 0 4 12c0 4.42 3.58 8 8 8v3l4-4-4-4v3z"/></symbol>
    <symbol id="icon-minecraft" viewBox="0 0 24 24"><path fill="currentColor" d="M4 2h16a2 2 0 0 1 2 2v16a2 2 0 0 1-2 2H4a2 2 0 0 1-2-2V4a2 2 0 0 1 2-2zm2 4v4h4V6H6zm8 0v4h4V6h-4zm-8 8v4h4v-4H6zm8 0v4h4v-4h-4z"/></symbol>
    <symbol id="icon-php" viewBox="0 0 24 24"><path fill="currentColor" d="M12 2C6.48 2 2 6.48 2 12s4.48 10 10 10 10-4.48 10-10S17.52 2 12 2zm-1 15H9l-1-6h2l.5 3h1l1-3h2l1 6h-2l-.5-3h-1L11 17z"/></symbol>
    <symbol id="icon-paper" viewBox="0 0 24 24"><path fill="currentColor" d="M20 2H4c-1.1 0-2 .9-2 2v16c0 1.1.9 2 2 2h16c1.1 0 2-.9 2-2V4c0-1.1-.9-2-2-2zm-1 9h-7l-2 5H8l-1-5H5l1.5-7h3L9 9h2l1-4h3l-1 4h3v2z"/></symbol>
    <symbol id="icon-filter" viewBox="0 0 24 24"><path fill="currentColor" d="M10 18h4v-2h-4v2zM3 6v2h18V6H3zm3 7h12v-2H6v2z"/></symbol>
    <symbol id="icon-home" viewBox="0 0 24 24"><path fill="currentColor" d="M10 20v-6h4v6h5v-8h3L12 3 2 12h3v8z"/></symbol>
    <symbol id="icon-key" viewBox="0 0 24 24"><path fill="currentColor" d="M12.65 10a6 6 0 1 0 0 4H18v4h4v-4h2v-4H12.65zM6 14a2 2 0 1 1 0-4 2 2 0 0 1 0 4z"/></symbol>
    <symbol id="icon-shield" viewBox="0 0 24 24"><path fill="currentColor" d="M12 1L3 5v6c0 5.55 3.84 10.74 9 12 5.16-1.26 9-6.45 9-12V5l-9-4zm0 10.99h7c-.53 4.12-3.28 7.79-7 8.94V12H5V6.3l7-3.11v8.8z"/></symbol>
    <symbol id="icon-login" viewBox="0 0 24 24"><path fill="currentColor" d="M11 7L9.6 8.4l2.6 2.6H2v2h10.2l-2.6 2.6L11 17l5-5-5-5zm9 12h-8v2h8c1.1 0 2-.9 2-2V5c0-1.1-.9-2-2-2h-8v2h8v14z"/></symbol>
    <symbol id="icon-cpu" viewBox="0 0 24 24"><path fill="currentColor" d="M17 8H7v8h10V8zm-2 6H9v-4h6v4zm4-8h2V4h-4v2h-2V4h-2v2H9V4H7v2H5v2h2v10H5v2h2v2h2v-2h2v2h2v-2h2v2h2v-2h2v-2h-2V8h2z"/></symbol>
    <symbol id="icon-arrow-right" viewBox="0 0 24 24"><path fill="currentColor" d="M12 4l-1.41 1.41L16.17 11H4v2h12.17l-5.58 5.59L12 20l8-8z"/></symbol>
    <symbol id="icon-arrow-left" viewBox="0 0 24 24"><path fill="currentColor" d="M20 11H7.83l5.59-5.59L12 4l-8 8 8 8 1.41-1.41L7.83 13H20v-2z"/></symbol>
  </defs>
</svg>
